v -0.8337132335 -2.910380964e-11 1
vn 0 1 0
v -0.1670471579 -2.910380964e-11 1
vn 0 1 0
v 0.4996193647 -2.910380964e-11 1
vn 0 1 0
v 1.166279078 -2.910380964e-11 1
vn 0 1 0
v -0.8337132335 -2.910380964e-11 0.3333324492
vn 0 1 0
v -0.1670471579 -2.910380964e-11 0.3333324492
vn 0 1 0
v 0.4996193647 -2.910380964e-11 0.3333324492
vn 0 1 0
v 1.166279078 -2.910380964e-11 0.3333324492
vn 0 1 0
v -0.8337132335 -2.910380964e-11 -0.3333336711
vn 0 1 0
v -0.1670471579 -2.910380964e-11 -0.3333336711
vn 0 1 0
v 0.4996193647 -2.910380964e-11 -0.3333336711
vn 0 1 0
v 1.166279078 -2.910380964e-11 -0.3333336711
vn 0 1 0
v -0.8337132335 -2.910380964e-11 -1
vn 0 1 0
v -0.1670471579 -2.910380964e-11 -1
vn 0 1 0
v 0.4996193647 -2.910380964e-11 -1
vn 0 1 0
v 1.166279078 -2.910380964e-11 -1
vn 0 1 0
v -1.166278958 -2.910380964e-11 0.0009646818507
vn 0 1 0
v -0.5003799796 -2.910380964e-11 0.6666668653
vn 0 1 0
v 0.1662861258 -2.910380964e-11 0.6666668653
vn 0 1 0
v 0.8329521418 -2.910380964e-11 0.6666668653
vn 0 1 0
v -0.5003799796 -2.910380964e-11 -6.643369375e-07
vn 0 1 0
v 0.1662861258 -2.910380964e-11 -6.643369375e-07
vn 0 1 0
v 0.8329521418 -2.910380964e-11 -6.643369375e-07
vn 0 1 0
v -0.5003799796 -2.910380964e-11 -0.6666668653
vn 0 1 0
v 0.1662861258 -2.910380964e-11 -0.6666668653
vn 0 1 0
v 0.8329521418 -2.910380964e-11 -0.6666668653
vn 0 1 0
# mm_gid 0
g mmGroup0
f 5//5 18//18 6//6 
f 6//6 19//19 7//7 
f 7//7 20//20 8//8 
f 9//9 21//21 10//10 
f 10//10 22//22 11//11 
f 11//11 23//23 12//12 
f 13//13 24//24 14//14 
f 14//14 25//25 15//15 
f 15//15 26//26 16//16 
f 1//1 2//2 18//18 
f 18//18 2//2 6//6 
f 1//1 18//18 5//5 
f 2//2 3//3 19//19 
f 19//19 3//3 7//7 
f 2//2 19//19 6//6 
f 3//3 4//4 20//20 
f 20//20 4//4 8//8 
f 3//3 20//20 7//7 
f 5//5 6//6 21//21 
f 21//21 6//6 10//10 
f 21//21 9//9 17//17 
f 6//6 7//7 22//22 
f 22//22 7//7 11//11 
f 6//6 22//22 10//10 
f 7//7 8//8 23//23 
f 23//23 8//8 12//12 
f 7//7 23//23 11//11 
f 9//9 10//10 24//24 
f 24//24 10//10 14//14 
f 9//9 24//24 13//13 
f 10//10 11//11 25//25 
f 25//25 11//11 15//15 
f 10//10 25//25 14//14 
f 11//11 12//12 26//26 
f 26//26 12//12 16//16 
f 11//11 26//26 15//15 
f 21//21 17//17 5//5 
